<mxfile host="app.diagrams.net" modified="2024-04-25T00:34:06.382Z" agent="Mozilla/5.0 (Windows NT 10.0; Win64; x64) AppleWebKit/537.36 (KHTML, like Gecko) Chrome/124.0.0.0 Safari/537.36" etag="xJhWpDebqI0zSPHabw_e" version="24.3.0" type="github">
  <diagram id="C5RBs43oDa-KdzZeNtuy" name="Page-1">
    <mxGraphModel dx="2320" dy="592" grid="1" gridSize="10" guides="1" tooltips="1" connect="1" arrows="1" fold="1" page="1" pageScale="1" pageWidth="827" pageHeight="1169" math="0" shadow="0">
      <root>
        <mxCell id="WIyWlLk6GJQsqaUBKTNV-0" />
        <mxCell id="WIyWlLk6GJQsqaUBKTNV-1" parent="WIyWlLk6GJQsqaUBKTNV-0" />
        <mxCell id="WIyWlLk6GJQsqaUBKTNV-2" value="" style="rounded=0;html=1;jettySize=auto;orthogonalLoop=1;fontSize=11;endArrow=block;endFill=0;endSize=8;strokeWidth=1;shadow=0;labelBackgroundColor=none;edgeStyle=orthogonalEdgeStyle;fontStyle=1" parent="WIyWlLk6GJQsqaUBKTNV-1" source="gsu9gnq4ONn_1pzDIltP-0" edge="1">
          <mxGeometry relative="1" as="geometry">
            <mxPoint x="220" y="220" as="targetPoint" />
          </mxGeometry>
        </mxCell>
        <mxCell id="WIyWlLk6GJQsqaUBKTNV-3" value="START" style="rounded=1;whiteSpace=wrap;html=1;fontSize=12;glass=0;strokeWidth=1;shadow=0;fontStyle=1" parent="WIyWlLk6GJQsqaUBKTNV-1" vertex="1">
          <mxGeometry x="160" y="80" width="120" height="30" as="geometry" />
        </mxCell>
        <mxCell id="WIyWlLk6GJQsqaUBKTNV-4" value="Yes" style="rounded=0;html=1;jettySize=auto;orthogonalLoop=1;fontSize=11;endArrow=block;endFill=0;endSize=8;strokeWidth=1;shadow=0;labelBackgroundColor=none;edgeStyle=orthogonalEdgeStyle;fontStyle=1" parent="WIyWlLk6GJQsqaUBKTNV-1" target="WIyWlLk6GJQsqaUBKTNV-10" edge="1">
          <mxGeometry y="20" relative="1" as="geometry">
            <mxPoint as="offset" />
            <mxPoint x="220" y="300" as="sourcePoint" />
          </mxGeometry>
        </mxCell>
        <mxCell id="gsu9gnq4ONn_1pzDIltP-2" style="edgeStyle=orthogonalEdgeStyle;rounded=0;orthogonalLoop=1;jettySize=auto;html=1;entryX=0.5;entryY=1;entryDx=0;entryDy=0;fontStyle=1" edge="1" parent="WIyWlLk6GJQsqaUBKTNV-1" source="WIyWlLk6GJQsqaUBKTNV-10" target="gsu9gnq4ONn_1pzDIltP-0">
          <mxGeometry relative="1" as="geometry" />
        </mxCell>
        <mxCell id="gsu9gnq4ONn_1pzDIltP-3" value="&lt;span&gt;FALSE&lt;/span&gt;" style="edgeStyle=orthogonalEdgeStyle;rounded=0;orthogonalLoop=1;jettySize=auto;html=1;exitX=0;exitY=0.5;exitDx=0;exitDy=0;fontStyle=1" edge="1" parent="WIyWlLk6GJQsqaUBKTNV-1" source="WIyWlLk6GJQsqaUBKTNV-10" target="gsu9gnq4ONn_1pzDIltP-4">
          <mxGeometry relative="1" as="geometry">
            <mxPoint x="90" y="360.33333333333337" as="targetPoint" />
          </mxGeometry>
        </mxCell>
        <mxCell id="gsu9gnq4ONn_1pzDIltP-7" style="edgeStyle=orthogonalEdgeStyle;rounded=0;orthogonalLoop=1;jettySize=auto;html=1;exitX=0.5;exitY=1;exitDx=0;exitDy=0;fontStyle=1" edge="1" parent="WIyWlLk6GJQsqaUBKTNV-1" source="WIyWlLk6GJQsqaUBKTNV-10">
          <mxGeometry relative="1" as="geometry">
            <mxPoint x="220.66666666666674" y="490" as="targetPoint" />
          </mxGeometry>
        </mxCell>
        <mxCell id="gsu9gnq4ONn_1pzDIltP-8" value="&lt;span&gt;TRUE&lt;/span&gt;" style="edgeLabel;html=1;align=center;verticalAlign=middle;resizable=0;points=[];fontStyle=1" vertex="1" connectable="0" parent="gsu9gnq4ONn_1pzDIltP-7">
          <mxGeometry x="0.0884" y="1" relative="1" as="geometry">
            <mxPoint as="offset" />
          </mxGeometry>
        </mxCell>
        <mxCell id="WIyWlLk6GJQsqaUBKTNV-10" value="DOES THE WINDOW START" style="rhombus;whiteSpace=wrap;html=1;shadow=0;fontFamily=Helvetica;fontSize=12;align=center;strokeWidth=1;spacing=6;spacingTop=-4;fontStyle=1" parent="WIyWlLk6GJQsqaUBKTNV-1" vertex="1">
          <mxGeometry x="160" y="310" width="120" height="100" as="geometry" />
        </mxCell>
        <mxCell id="gsu9gnq4ONn_1pzDIltP-1" value="" style="rounded=0;html=1;jettySize=auto;orthogonalLoop=1;fontSize=11;endArrow=block;endFill=0;endSize=8;strokeWidth=1;shadow=0;labelBackgroundColor=none;edgeStyle=orthogonalEdgeStyle;fontStyle=1" edge="1" parent="WIyWlLk6GJQsqaUBKTNV-1" source="WIyWlLk6GJQsqaUBKTNV-3" target="gsu9gnq4ONn_1pzDIltP-0">
          <mxGeometry relative="1" as="geometry">
            <mxPoint x="220" y="110" as="sourcePoint" />
            <mxPoint x="220" y="220" as="targetPoint" />
          </mxGeometry>
        </mxCell>
        <mxCell id="gsu9gnq4ONn_1pzDIltP-0" value="INITIALIZE WINDOW" style="whiteSpace=wrap;html=1;aspect=fixed;fontStyle=1" vertex="1" parent="WIyWlLk6GJQsqaUBKTNV-1">
          <mxGeometry x="180" y="190" width="80" height="80" as="geometry" />
        </mxCell>
        <mxCell id="gsu9gnq4ONn_1pzDIltP-5" style="edgeStyle=orthogonalEdgeStyle;rounded=0;orthogonalLoop=1;jettySize=auto;html=1;fontStyle=1" edge="1" parent="WIyWlLk6GJQsqaUBKTNV-1" source="gsu9gnq4ONn_1pzDIltP-4" target="gsu9gnq4ONn_1pzDIltP-6">
          <mxGeometry relative="1" as="geometry">
            <mxPoint x="20" y="480" as="targetPoint" />
          </mxGeometry>
        </mxCell>
        <mxCell id="gsu9gnq4ONn_1pzDIltP-4" value="DISPLAY ERROR" style="rounded=1;whiteSpace=wrap;html=1;fontStyle=1" vertex="1" parent="WIyWlLk6GJQsqaUBKTNV-1">
          <mxGeometry x="-40" y="330.0033333333334" width="120" height="60" as="geometry" />
        </mxCell>
        <mxCell id="gsu9gnq4ONn_1pzDIltP-6" value="END" style="ellipse;whiteSpace=wrap;html=1;aspect=fixed;fontStyle=1" vertex="1" parent="WIyWlLk6GJQsqaUBKTNV-1">
          <mxGeometry x="-20" y="440" width="80" height="80" as="geometry" />
        </mxCell>
        <mxCell id="gsu9gnq4ONn_1pzDIltP-10" style="edgeStyle=orthogonalEdgeStyle;rounded=0;orthogonalLoop=1;jettySize=auto;html=1;fontStyle=1" edge="1" parent="WIyWlLk6GJQsqaUBKTNV-1" source="gsu9gnq4ONn_1pzDIltP-9" target="gsu9gnq4ONn_1pzDIltP-11">
          <mxGeometry relative="1" as="geometry">
            <mxPoint x="230" y="710" as="targetPoint" />
          </mxGeometry>
        </mxCell>
        <mxCell id="gsu9gnq4ONn_1pzDIltP-9" value="SETUP PLAYER ATTRIBUTES:&lt;div&gt;&lt;br&gt;&lt;/div&gt;&lt;div&gt;--------------------------&lt;/div&gt;&lt;div&gt;&lt;br&gt;&lt;/div&gt;&lt;div&gt;&amp;nbsp;POSITION, DIMENSIONS, DIRECTIONS&lt;/div&gt;" style="whiteSpace=wrap;html=1;aspect=fixed;fontStyle=1" vertex="1" parent="WIyWlLk6GJQsqaUBKTNV-1">
          <mxGeometry x="160" y="490" width="140" height="140" as="geometry" />
        </mxCell>
        <mxCell id="gsu9gnq4ONn_1pzDIltP-13" style="edgeStyle=elbowEdgeStyle;rounded=0;orthogonalLoop=1;jettySize=auto;html=1;fontStyle=1" edge="1" parent="WIyWlLk6GJQsqaUBKTNV-1" source="gsu9gnq4ONn_1pzDIltP-11">
          <mxGeometry relative="1" as="geometry">
            <mxPoint x="450" y="300" as="targetPoint" />
          </mxGeometry>
        </mxCell>
        <mxCell id="gsu9gnq4ONn_1pzDIltP-11" value="PROCESS&lt;div&gt;INPUT&lt;/div&gt;" style="whiteSpace=wrap;html=1;aspect=fixed;fontStyle=1" vertex="1" parent="WIyWlLk6GJQsqaUBKTNV-1">
          <mxGeometry x="170" y="700" width="120" height="120" as="geometry" />
        </mxCell>
        <mxCell id="gsu9gnq4ONn_1pzDIltP-15" style="edgeStyle=elbowEdgeStyle;rounded=0;orthogonalLoop=1;jettySize=auto;html=1;fontStyle=1" edge="1" parent="WIyWlLk6GJQsqaUBKTNV-1" source="gsu9gnq4ONn_1pzDIltP-14">
          <mxGeometry relative="1" as="geometry">
            <mxPoint x="525" y="430" as="targetPoint" />
          </mxGeometry>
        </mxCell>
        <mxCell id="gsu9gnq4ONn_1pzDIltP-16" value="&lt;span&gt;TRUE&lt;/span&gt;" style="edgeLabel;html=1;align=center;verticalAlign=middle;resizable=0;points=[];fontStyle=1" vertex="1" connectable="0" parent="gsu9gnq4ONn_1pzDIltP-15">
          <mxGeometry x="0.0326" y="-1" relative="1" as="geometry">
            <mxPoint y="1" as="offset" />
          </mxGeometry>
        </mxCell>
        <mxCell id="gsu9gnq4ONn_1pzDIltP-20" style="edgeStyle=elbowEdgeStyle;rounded=0;orthogonalLoop=1;jettySize=auto;html=1;exitX=1;exitY=0.5;exitDx=0;exitDy=0;fontStyle=1" edge="1" parent="WIyWlLk6GJQsqaUBKTNV-1" source="gsu9gnq4ONn_1pzDIltP-14" target="gsu9gnq4ONn_1pzDIltP-21">
          <mxGeometry relative="1" as="geometry">
            <mxPoint x="680" y="299.66666666666663" as="targetPoint" />
          </mxGeometry>
        </mxCell>
        <mxCell id="gsu9gnq4ONn_1pzDIltP-14" value="GAME IS RUNNING?" style="rhombus;whiteSpace=wrap;html=1;fontStyle=1" vertex="1" parent="WIyWlLk6GJQsqaUBKTNV-1">
          <mxGeometry x="450" y="230" width="150" height="140" as="geometry" />
        </mxCell>
        <mxCell id="gsu9gnq4ONn_1pzDIltP-18" style="edgeStyle=elbowEdgeStyle;rounded=0;orthogonalLoop=1;jettySize=auto;html=1;exitX=0.5;exitY=1;exitDx=0;exitDy=0;fontStyle=1" edge="1" parent="WIyWlLk6GJQsqaUBKTNV-1" source="gsu9gnq4ONn_1pzDIltP-17" target="gsu9gnq4ONn_1pzDIltP-19">
          <mxGeometry relative="1" as="geometry">
            <mxPoint x="524.6666666666667" y="650" as="targetPoint" />
          </mxGeometry>
        </mxCell>
        <mxCell id="gsu9gnq4ONn_1pzDIltP-17" value="UPDATE&lt;div&gt;--------------------------&lt;/div&gt;&lt;div&gt;DELTA TIME&lt;/div&gt;&lt;div&gt;MOVE PLAYER&lt;/div&gt;&lt;div&gt;CAST RAYS&lt;/div&gt;" style="whiteSpace=wrap;html=1;aspect=fixed;fontStyle=1" vertex="1" parent="WIyWlLk6GJQsqaUBKTNV-1">
          <mxGeometry x="450" y="435" width="150" height="150" as="geometry" />
        </mxCell>
        <mxCell id="gsu9gnq4ONn_1pzDIltP-19" value="RENDER (DRAW)&lt;div&gt;---------------------&lt;/div&gt;&lt;div&gt;MAP&lt;/div&gt;&lt;div&gt;PLAYER&lt;/div&gt;&lt;div&gt;RAYS&lt;/div&gt;" style="whiteSpace=wrap;html=1;aspect=fixed;fontStyle=1" vertex="1" parent="WIyWlLk6GJQsqaUBKTNV-1">
          <mxGeometry x="445" y="620" width="160" height="160" as="geometry" />
        </mxCell>
        <mxCell id="gsu9gnq4ONn_1pzDIltP-22" style="edgeStyle=elbowEdgeStyle;rounded=0;orthogonalLoop=1;jettySize=auto;html=1;fontStyle=1" edge="1" parent="WIyWlLk6GJQsqaUBKTNV-1" source="gsu9gnq4ONn_1pzDIltP-21">
          <mxGeometry relative="1" as="geometry">
            <mxPoint x="700" y="400" as="targetPoint" />
          </mxGeometry>
        </mxCell>
        <mxCell id="gsu9gnq4ONn_1pzDIltP-23" value="&lt;span&gt;FALSE&lt;/span&gt;" style="edgeLabel;html=1;align=center;verticalAlign=middle;resizable=0;points=[];fontStyle=1" vertex="1" connectable="0" parent="gsu9gnq4ONn_1pzDIltP-22">
          <mxGeometry x="-0.0473" y="-3" relative="1" as="geometry">
            <mxPoint as="offset" />
          </mxGeometry>
        </mxCell>
        <mxCell id="gsu9gnq4ONn_1pzDIltP-21" value="DESTROY WINDOW" style="rounded=0;whiteSpace=wrap;html=1;fontStyle=1" vertex="1" parent="WIyWlLk6GJQsqaUBKTNV-1">
          <mxGeometry x="640" y="270.0066666666666" width="120" height="60" as="geometry" />
        </mxCell>
        <mxCell id="gsu9gnq4ONn_1pzDIltP-24" value="END" style="ellipse;whiteSpace=wrap;html=1;aspect=fixed;fontStyle=1" vertex="1" parent="WIyWlLk6GJQsqaUBKTNV-1">
          <mxGeometry x="660" y="400" width="80" height="80" as="geometry" />
        </mxCell>
      </root>
    </mxGraphModel>
  </diagram>
</mxfile>
